<?xml version="1.0" ?><!DOCTYPE svg  PUBLIC '-//W3C//DTD SVG 20010904//EN'  'http://www.w3.org/TR/2001/REC-SVG-20010904/DTD/svg10.dtd'><svg xmlns="http://www.w3.org/2000/svg" height="146.000000pt" preserveAspectRatio="xMidYMid meet" version="1.0" viewBox="0 0 491.000000 146.000000" width="491.000000pt">
<g fill="#14a5ca" stroke="#14a5ca" transform="translate(0.000000,146.000000) scale(0.100000,-0.100000)">
<path d="M4645 1436 c-58 -63 -65 -78 -64 -135 1 -100 7 -103 72 -37 l57 57 0 70 c0 65 -1 69 -22 68 -13 -1 -32 -11 -43 -23z"/>
<path d="M432 1337 c-34 -34 -62 -66 -62 -70 0 -4 20 -39 46 -77 l45 -69 -2 -116 c-1 -64 -4 -125 -6 -135 -6 -21 -33 -35 -42 -22 -3 5 -21 11 -39 14 -30 4 -40 -2 -98 -57 -35 -33 -64 -65 -64 -71 0 -5 54 -35 120 -66 l120 -56 0 -121 c0 -67 4 -121 8 -121 5 0 36 28 70 62 40 40 62 70 62 85 0 13 2 23 4 23 2 0 68 -31 145 -70 78 -38 147 -70 155 -70 7 0 23 12 37 26 23 24 24 25 39 7 77 -93 135 -82 249 47 49 55 76 96 91 139 13 34 26 61 31 61 4 0 9 -47 11 -105 l3 -105 -35 -10 c-19 -6 -39 -10 -43 -10 -12 0 -136 -112 -142 -129 -4 -10 1 -12 17 -8 104 22 178 38 203 42 108 17 408 55 445 56 25 1 78 6 118 12 68 9 77 8 122 -14 52 -25 63 -39 31 -39 -11 0 -68 -25 -128 -55 -114 -58 -214 -138 -196 -156 7 -7 16 -7 29 0 62 34 193 83 279 105 250 62 490 56 785 -20 213 -54 478 -141 612 -198 21 -9 44 -16 52 -16 14 0 136 116 136 129 0 8 -17 15 -225 91 -138 51 -314 105 -487 150 -54 14 -53 13 -36 40 10 16 6 34 -25 111 -20 51 -35 94 -34 95 3 3 54 -32 171 -116 27 -19 78 -59 115 -87 67 -54 88 -62 108 -42 9 9 20 2 45 -26 47 -54 88 -70 134 -50 48 20 165 139 190 194 l21 44 6 -76 c9 -98 35 -217 49 -217 6 0 38 27 71 59 57 58 59 61 52 100 -4 23 -4 41 0 41 4 0 55 -29 114 -64 202 -121 190 -118 260 -53 l41 38 34 -26 c50 -38 85 -33 148 20 56 48 148 153 148 170 1 5 9 27 19 48 l18 39 12 -64 c13 -66 85 -293 100 -317 8 -12 17 -8 48 20 21 19 51 49 67 67 28 32 28 35 16 73 -7 21 -16 39 -20 39 -4 0 -10 19 -14 42 -4 22 -13 53 -20 67 -39 72 -70 334 -63 519 4 109 3 142 -7 142 -11 0 -65 -52 -95 -93 -20 -25 -40 -132 -41 -209 l0 -68 -69 0 -70 0 -65 -63 c-37 -34 -66 -67 -66 -72 0 -6 37 -9 95 -7 110 4 106 10 79 -111 -18 -84 -35 -127 -49 -127 -5 0 -35 27 -67 60 -67 71 -128 187 -160 305 -26 97 -36 325 -15 325 20 0 111 -98 156 -169 l41 -64 67 65 66 65 -13 33 c-22 52 -92 141 -149 189 -74 62 -97 60 -179 -21 -35 -35 -75 -80 -88 -101 -28 -43 -54 -134 -54 -190 0 -21 -4 -37 -9 -35 -35 13 -311 372 -311 405 0 22 -12 15 -84 -50 l-69 -63 18 -34 c10 -19 31 -55 47 -78 29 -42 30 -47 23 -110 l-8 -67 -23 93 c-50 195 -164 357 -238 338 -37 -9 -152 -122 -187 -184 -32 -55 -33 -62 -37 -182 -1 -69 -8 -135 -14 -147 -7 -14 -9 -51 -4 -104 l7 -81 -48 34 c-26 19 -77 56 -113 82 l-64 46 46 0 c36 0 54 6 80 28 49 41 77 75 78 95 0 20 -27 22 -246 19 l-132 -2 -11 46 c-7 26 -15 97 -18 160 -3 63 -9 114 -13 114 -4 0 -32 -24 -63 -53 -63 -61 -83 -112 -73 -189 l7 -48 -68 -64 -68 -64 -20 76 c-28 106 -68 175 -145 253 -112 114 -173 116 -278 13 -35 -35 -66 -64 -68 -64 -2 0 -4 14 -4 30 0 44 -21 38 -78 -24 -48 -54 -62 -86 -62 -150 0 -31 -1 -31 -73 44 -70 71 -261 308 -270 333 -2 7 -29 -12 -60 -43 -77 -75 -81 -99 -28 -170 l41 -54 -7 -71 c-7 -86 -21 -129 -22 -70 -2 61 -38 201 -71 270 -32 68 -88 125 -121 125 -26 0 -92 -46 -149 -104 -24 -25 -49 -46 -55 -46 -7 0 -41 -30 -77 -67 -59 -62 -66 -73 -72 -122 l-7 -53 -61 83 c-34 46 -78 107 -98 134 -20 28 -59 83 -86 122 -27 40 -51 73 -54 73 -3 0 -34 -28 -68 -63z m667 -156 c25 -33 50 -83 72 -148 32 -95 33 -103 34 -258 0 -172 -9 -255 -28 -255 -23 1 -84 67 -116 128 -10 19 -8 27 14 56 l26 34 -35 103 c-48 143 -62 235 -46 321 8 46 16 68 26 68 7 0 31 -22 53 -49z m2233 0 c50 -58 105 -177 133 -288 14 -54 25 -104 25 -112 0 -7 -23 -38 -51 -69 l-51 -56 54 -16 53 -16 -3 -75 c-2 -41 -7 -78 -11 -82 -12 -12 -74 46 -109 101 -47 74 -48 87 -13 127 l30 35 -33 72 c-18 40 -41 102 -50 138 -21 79 -34 280 -18 280 6 0 26 -18 44 -39z m-1297 -41 c90 -34 201 -190 236 -330 17 -69 17 -247 1 -277 -12 -22 -14 -22 -50 -8 -20 8 -49 29 -63 45 -14 17 -29 30 -33 30 -10 0 -45 42 -46 54 0 4 11 22 25 38 l25 30 -28 51 c-57 103 -102 248 -102 335 0 47 -1 46 35 32z m-491 -207 l38 -42 -25 -6 c-50 -13 -62 -4 -65 49 -2 26 1 46 6 45 4 -2 25 -23 46 -46z m-910 -52 c20 -27 36 -50 36 -53 0 -2 -18 -2 -40 0 l-40 4 0 49 c0 27 2 49 4 49 2 0 20 -22 40 -49z m3233 -80 c12 -14 20 -27 18 -29 -2 -3 -34 -1 -70 3 l-66 7 5 41 c2 23 5 55 5 71 l1 29 43 -48 c23 -27 52 -60 64 -74z m-2043 -100 c-6 -7 -154 41 -154 50 0 4 8 10 18 13 10 4 36 24 57 46 l40 41 22 -73 c12 -40 20 -74 17 -77z m794 7 c11 -35 37 -108 56 -163 20 -55 36 -101 36 -103 0 -2 -44 -1 -97 3 -87 6 -241 -4 -343 -21 l-35 -6 61 63 c33 35 67 75 76 89 20 34 48 118 48 147 0 33 14 28 36 -12 10 -19 21 -35 24 -35 12 0 60 38 85 68 15 17 28 32 30 32 2 0 12 -28 23 -62z m-1766 -25 c9 -32 15 -59 14 -61 -2 -1 -31 10 -65 25 -57 25 -77 43 -48 43 6 1 26 12 42 25 17 14 32 25 35 25 3 0 13 -26 22 -57z m3212 -24 c9 -33 28 -83 41 -110 14 -27 23 -49 19 -49 -3 0 -29 15 -57 34 -29 18 -76 46 -104 62 -55 30 -66 44 -35 44 9 1 37 19 62 40 25 22 48 40 51 40 3 0 13 -27 23 -61z m-2427 -86 c50 -16 94 -31 98 -34 5 -5 -189 -39 -222 -39 -7 0 -13 22 -15 56 -4 65 -12 64 139 17z"/>
<path d="M4802 928 c-38 -37 -61 -67 -57 -75 3 -8 5 -23 5 -33 0 -10 8 -28 18 -40 l17 -21 63 59 c42 39 61 65 59 78 -5 30 -30 94 -37 94 -3 0 -34 -28 -68 -62z"/>
<path d="M67 882 c-56 -56 -62 -72 -27 -72 21 0 124 105 116 119 -13 21 -32 11 -89 -47z"/>
<path d="M165 849 l-60 -60 24 -20 c13 -10 27 -19 32 -19 4 0 38 28 74 62 l66 61 -28 18 c-15 11 -33 19 -38 19 -6 0 -37 -27 -70 -61z"/>
<path d="M2412 237 c-29 -8 -61 -30 -102 -71 -33 -32 -60 -62 -60 -65 0 -3 55 -6 123 -6 87 -1 138 -6 180 -18 33 -10 77 -19 99 -20 34 -1 44 4 64 28 13 17 35 44 49 61 14 18 25 36 25 42 0 38 -285 75 -378 49z"/>
<path d="M2766 114 c-49 -53 -56 -65 -42 -70 23 -9 152 116 133 128 -21 13 -30 7 -91 -58z"/>
<path d="M2830 75 c-30 -30 -49 -55 -41 -55 18 0 121 91 115 102 -9 15 -19 9 -74 -47z"/>
</g>
</svg>